<svg xmlns="http://www.w3.org/2000/svg" xmlns:xlink="http://www.w3.org/1999/xlink" width="500" zoomAndPan="magnify" viewBox="0 0 375 374.999991" height="500" preserveAspectRatio="xMidYMid meet" version="1.0"><defs><g/></defs><g fill="#153462" fill-opacity="1"><g transform="translate(1.524703, 307.734799)"><g><path d="M 108.3125 -131.039062 C 91.492188 -139.007812 74.964844 -139.007812 73.488281 -139.007812 C 58.4375 -139.007812 43.976562 -147.863281 43.976562 -164.980469 C 43.976562 -183.867188 57.257812 -193.609375 73.488281 -193.609375 C 88.835938 -193.609375 101.820312 -185.640625 102.410156 -168.816406 C 102.410156 -167.929688 103.886719 -166.457031 105.65625 -166.457031 L 142.550781 -166.457031 C 144.617188 -166.457031 146.089844 -167.929688 145.796875 -168.816406 C 145.207031 -208.953125 113.921875 -236.105469 73.488281 -236.105469 C 35.710938 -236.105469 0 -209.25 0 -164.980469 C 0 -137.53125 13.871094 -116.578125 38.367188 -105.363281 C 55.484375 -97.394531 71.421875 -97.394531 73.488281 -97.394531 C 86.769531 -96.804688 103 -86.179688 103 -68.765625 C 103 -53.125 89.128906 -42.5 73.488281 -42.5 C 73.488281 -42.5 73.488281 -42.5 73.191406 -42.5 L 73.191406 0 C 73.488281 0 73.488281 0 73.488281 0 C 111.265625 0 146.679688 -24.496094 146.679688 -68.765625 C 146.679688 -96.507812 133.105469 -119.527344 108.3125 -131.039062 Z M 108.3125 -131.039062 "/></g></g></g><g fill="#153462" fill-opacity="1"><g transform="translate(155.584159, 307.734799)"><g><path d="M 45.15625 -133.695312 L 45.15625 -233.449219 C 45.15625 -234.632812 43.976562 -236.105469 41.910156 -236.105469 L 3.246094 -236.105469 C 1.476562 -236.105469 0 -234.632812 0 -233.449219 L 0 -133.695312 Z M 176.488281 -236.105469 L 137.828125 -236.105469 C 136.054688 -236.105469 134.582031 -234.632812 134.582031 -233.449219 L 134.582031 -88.246094 L 45.15625 -88.246094 L 45.15625 -88.539062 L 0 -88.539062 L 0 -2.65625 C 0 -1.476562 1.476562 0 3.246094 0 L 41.910156 0 C 43.976562 0 45.15625 -1.476562 45.15625 -2.65625 L 45.15625 -44.269531 L 134.582031 -44.269531 L 134.582031 -2.65625 C 134.582031 -1.476562 136.054688 0 137.828125 0 L 176.488281 0 C 178.554688 0 179.738281 -1.476562 179.738281 -2.65625 L 179.738281 -233.449219 C 179.738281 -234.632812 178.554688 -236.105469 176.488281 -236.105469 Z M 176.488281 -236.105469 "/></g></g></g><g fill="#153462" fill-opacity="1"><g transform="translate(355.476914, 302.690501)"><g><path d="M -4.03125 -12.78125 C -2.664062 -12.78125 -1.617188 -12.269531 -0.890625 -11.25 C -0.160156 -10.238281 0.203125 -8.75 0.203125 -6.78125 C 0.203125 -4.976562 -0.113281 -3.566406 -0.75 -2.546875 C -1.382812 -1.535156 -2.347656 -0.882812 -3.640625 -0.59375 L -4.109375 -3.421875 C -3.367188 -3.609375 -2.832031 -3.976562 -2.5 -4.53125 C -2.164062 -5.09375 -2 -5.867188 -2 -6.859375 C -2 -8.910156 -2.617188 -9.9375 -3.859375 -9.9375 C -4.265625 -9.9375 -4.59375 -9.816406 -4.84375 -9.578125 C -5.101562 -9.335938 -5.316406 -9.003906 -5.484375 -8.578125 C -5.660156 -8.148438 -5.875 -7.332031 -6.125 -6.125 C -6.363281 -5.070312 -6.554688 -4.34375 -6.703125 -3.9375 C -6.859375 -3.53125 -7.035156 -3.160156 -7.234375 -2.828125 C -7.441406 -2.492188 -7.6875 -2.207031 -7.96875 -1.96875 C -8.257812 -1.738281 -8.59375 -1.5625 -8.96875 -1.4375 C -9.351562 -1.3125 -9.796875 -1.25 -10.296875 -1.25 C -11.566406 -1.25 -12.535156 -1.722656 -13.203125 -2.671875 C -13.878906 -3.617188 -14.21875 -5 -14.21875 -6.8125 C -14.21875 -8.550781 -13.941406 -9.851562 -13.390625 -10.71875 C -12.847656 -11.59375 -11.953125 -12.160156 -10.703125 -12.421875 L -10.3125 -9.578125 C -10.914062 -9.429688 -11.367188 -9.132812 -11.671875 -8.6875 C -11.984375 -8.238281 -12.140625 -7.597656 -12.140625 -6.765625 C -12.140625 -4.984375 -11.582031 -4.09375 -10.46875 -4.09375 C -10.101562 -4.09375 -9.800781 -4.1875 -9.5625 -4.375 C -9.332031 -4.5625 -9.132812 -4.84375 -8.96875 -5.21875 C -8.8125 -5.59375 -8.613281 -6.34375 -8.375 -7.46875 C -8.082031 -8.820312 -7.816406 -9.785156 -7.578125 -10.359375 C -7.335938 -10.941406 -7.054688 -11.398438 -6.734375 -11.734375 C -6.410156 -12.078125 -6.023438 -12.335938 -5.578125 -12.515625 C -5.128906 -12.691406 -4.613281 -12.78125 -4.03125 -12.78125 Z M -4.03125 -12.78125 "/></g></g></g><g fill="#153462" fill-opacity="1"><g transform="translate(355.476914, 282.662372)"><g><path d="M 0 -11.265625 L -3.578125 -10.015625 L -3.578125 -4.6875 L 0 -3.4375 L 0 -0.5 L -14 -5.609375 L -14 -9.078125 L 0 -14.171875 Z M -11.84375 -7.34375 L -11.625 -7.28125 C -11.382812 -7.21875 -11.113281 -7.140625 -10.8125 -7.046875 C -10.507812 -6.953125 -8.832031 -6.382812 -5.78125 -5.34375 L -5.78125 -9.359375 L -9.8125 -7.984375 L -11.15625 -7.5625 Z M -11.84375 -7.34375 "/></g></g></g><g fill="#153462" fill-opacity="1"><g transform="translate(355.476914, 261.511393)"><g><path d="M -11.734375 -4.296875 L -7.40625 -4.296875 L -7.40625 -11.46875 L -5.140625 -11.46875 L -5.140625 -4.296875 L 0 -4.296875 L 0 -1.359375 L -14 -1.359375 L -14 -11.6875 L -11.734375 -11.6875 Z M -11.734375 -4.296875 "/></g></g></g><g fill="#153462" fill-opacity="1"><g transform="translate(355.476914, 242.625986)"><g><path d="M 0 -10.984375 L -5.3125 -7.734375 L -5.3125 -4.296875 L 0 -4.296875 L 0 -1.359375 L -14 -1.359375 L -14 -8.359375 C -14 -10.023438 -13.640625 -11.3125 -12.921875 -12.21875 C -12.203125 -13.132812 -11.171875 -13.59375 -9.828125 -13.59375 C -8.847656 -13.59375 -8 -13.3125 -7.28125 -12.75 C -6.570312 -12.195312 -6.109375 -11.445312 -5.890625 -10.5 L 0 -14.28125 Z M -9.71875 -10.640625 C -11.0625 -10.640625 -11.734375 -9.773438 -11.734375 -8.046875 L -11.734375 -4.296875 L -7.59375 -4.296875 L -7.59375 -8.125 C -7.59375 -8.945312 -7.773438 -9.570312 -8.140625 -10 C -8.515625 -10.425781 -9.039062 -10.640625 -9.71875 -10.640625 Z M -9.71875 -10.640625 "/></g></g></g><g fill="#153462" fill-opacity="1"><g transform="translate(355.476914, 221.475008)"><g><path d="M 0 -1.359375 L -14 -1.359375 L -14 -4.296875 L 0 -4.296875 Z M 0 -1.359375 "/></g></g></g><g fill="#153462" fill-opacity="1"><g transform="translate(355.476914, 209.366449)"><g><path d="M 0 -1.359375 L -14 -1.359375 L -14 -4.296875 L -2.265625 -4.296875 L -2.265625 -11.8125 L 0 -11.8125 Z M 0 -1.359375 "/></g></g></g><g fill="#153462" fill-opacity="1"><g transform="translate(355.476914, 190.481038)"><g><path d="M 0 -1.359375 L -14 -1.359375 L -14 -4.296875 L 0 -4.296875 Z M 0 -1.359375 "/></g></g></g><g fill="#153462" fill-opacity="1"><g transform="translate(355.476914, 178.372473)"><g><path d="M 0 -11.265625 L -3.578125 -10.015625 L -3.578125 -4.6875 L 0 -3.4375 L 0 -0.5 L -14 -5.609375 L -14 -9.078125 L 0 -14.171875 Z M -11.84375 -7.34375 L -11.625 -7.28125 C -11.382812 -7.21875 -11.113281 -7.140625 -10.8125 -7.046875 C -10.507812 -6.953125 -8.832031 -6.382812 -5.78125 -5.34375 L -5.78125 -9.359375 L -9.8125 -7.984375 L -11.15625 -7.5625 Z M -11.84375 -7.34375 "/></g></g></g><g fill="#153462" fill-opacity="1"><g transform="translate(355.476914, 157.221489)"><g/></g></g><g fill="#153462" fill-opacity="1"><g transform="translate(355.476914, 145.112924)"><g><path d="M 0 -10.390625 L -6 -10.390625 L -6 -4.296875 L 0 -4.296875 L 0 -1.359375 L -14 -1.359375 L -14 -4.296875 L -8.4375 -4.296875 L -8.4375 -10.390625 L -14 -10.390625 L -14 -13.328125 L 0 -13.328125 Z M 0 -10.390625 "/></g></g></g><g fill="#153462" fill-opacity="1"><g transform="translate(355.476914, 123.96194)"><g><path d="M 0 -1.359375 L -14 -1.359375 L -14 -4.296875 L 0 -4.296875 Z M 0 -1.359375 "/></g></g></g><g fill="#153462" fill-opacity="1"><g transform="translate(355.476914, 111.853374)"><g><path d="M -7.109375 -13.84375 C -5.660156 -13.84375 -4.394531 -13.554688 -3.3125 -12.984375 C -2.238281 -12.421875 -1.414062 -11.617188 -0.84375 -10.578125 C -0.28125 -9.546875 0 -8.363281 0 -7.03125 L 0 -1.359375 L -14 -1.359375 L -14 -6.4375 C -14 -8.789062 -13.40625 -10.613281 -12.21875 -11.90625 C -11.03125 -13.195312 -9.328125 -13.84375 -7.109375 -13.84375 Z M -7.109375 -10.890625 C -8.609375 -10.890625 -9.753906 -10.5 -10.546875 -9.71875 C -11.335938 -8.9375 -11.734375 -7.820312 -11.734375 -6.375 L -11.734375 -4.296875 L -2.265625 -4.296875 L -2.265625 -6.78125 C -2.265625 -8.039062 -2.695312 -9.039062 -3.5625 -9.78125 C -4.4375 -10.519531 -5.617188 -10.890625 -7.109375 -10.890625 Z M -7.109375 -10.890625 "/></g></g></g><g fill="#153462" fill-opacity="1"><g transform="translate(355.476914, 90.702391)"><g><path d="M 0 -11.265625 L -3.578125 -10.015625 L -3.578125 -4.6875 L 0 -3.4375 L 0 -0.5 L -14 -5.609375 L -14 -9.078125 L 0 -14.171875 Z M -11.84375 -7.34375 L -11.625 -7.28125 C -11.382812 -7.21875 -11.113281 -7.140625 -10.8125 -7.046875 C -10.507812 -6.953125 -8.832031 -6.382812 -5.78125 -5.34375 L -5.78125 -9.359375 L -9.8125 -7.984375 L -11.15625 -7.5625 Z M -11.84375 -7.34375 "/></g></g></g></svg>